<svg width="30" height="28" viewBox="0 0 30 28" fill="none" xmlns="http://www.w3.org/2000/svg">
<path fill-rule="evenodd" clip-rule="evenodd" d="M21.8498 0C26.4963 0 30 3.79116 30 8.81861V18.4019C30 20.9749 29.0902 23.2995 27.4367 24.9488C25.9535 26.4265 24.0293 27.2093 21.8721 27.2093H8.12372C5.9707 27.2093 4.04791 26.4279 2.56326 24.9488C0.909768 23.2995 0 20.9749 0 18.4019V8.81861C0 3.79116 3.50372 0 8.15023 0H21.8498ZM21.8498 2.09302H8.15023C4.64093 2.09302 2.09302 4.9214 2.09302 8.81861V18.4019C2.09302 20.4153 2.78512 22.214 4.04093 23.4656C5.12372 24.547 6.53721 25.1163 8.12791 25.1163H21.8498C21.8526 25.1135 21.8637 25.1163 21.8721 25.1163C23.4642 25.1163 24.8763 24.547 25.9591 23.4656C27.2163 22.214 27.907 20.4153 27.907 18.4019V8.81861C27.907 4.9214 25.3591 2.09302 21.8498 2.09302ZM24.0488 8.55181C24.413 8.99972 24.3446 9.65833 23.8967 10.0239L17.6958 15.0639C16.9116 15.6862 15.974 15.9974 15.0377 15.9974C14.1042 15.9974 13.1735 15.689 12.3949 15.0723L6.13674 10.0267C5.68605 9.66391 5.61628 9.00391 5.97767 8.5546C6.34186 8.1067 7.00047 8.03554 7.44977 8.39693L13.7023 13.4369C14.4879 14.0593 15.5944 14.0593 16.3856 13.4313L22.5753 8.39972C23.0246 8.03274 23.6833 8.10251 24.0488 8.55181Z" fill="white"/>
</svg>
