<svg xmlns="http://www.w3.org/2000/svg" width="40" height="38" fill="none" viewBox="0 0 40 38"><path fill="#fff" d="M19.9339 0.605255C9.34755 0.605255 0.763184 9.18812 0.763184 19.7759C0.763184 28.2462 6.25616 35.4321 13.8733 37.9671C14.8314 38.1445 15.1832 37.5512 15.1832 37.0448C15.1832 36.5877 15.1653 35.0774 15.1572 33.4756C9.82372 34.6353 8.69833 31.2137 8.69833 31.2137C7.82629 28.9978 6.56979 28.4087 6.56979 28.4087C4.83052 27.2188 6.7009 27.2432 6.7009 27.2432C8.62601 27.3785 9.63969 29.2188 9.63969 29.2188C11.3495 32.1496 14.1244 31.3022 15.2184 30.8125C15.3904 29.5733 15.8873 28.7278 16.4355 28.249C12.1775 27.7642 7.70119 26.1204 7.70119 18.7747C7.70119 16.6818 8.4501 14.9716 9.67652 13.6291C9.47746 13.1461 8.82132 11.1964 9.86221 8.55574C9.86221 8.55574 11.472 8.04048 15.1355 10.5208C16.6646 10.0959 18.3046 9.88305 19.9339 9.87583C21.5631 9.88305 23.2043 10.0959 24.7364 10.5208C28.3955 8.04048 30.0031 8.55574 30.0031 8.55574C31.0466 11.1964 30.3901 13.1461 30.191 13.6291C31.4202 14.9716 32.164 16.6817 32.164 18.7747C32.164 26.1378 27.6793 27.7592 23.4105 28.2337C24.098 28.8286 24.7107 29.9954 24.7107 31.7838C24.7107 34.3488 24.6885 36.4133 24.6885 37.0448C24.6885 37.5549 25.0335 38.1527 26.0054 37.9645C33.6183 35.4267 39.1044 28.2433 39.1044 19.7759C39.1044 9.18812 30.5212 0.605255 19.9339 0.605255Z"/><path fill="#fff" d="M7.94321 27.9144C7.90111 28.0095 7.75106 28.0381 7.61469 27.9728C7.47561 27.9103 7.39743 27.7804 7.44254 27.6848C7.48388 27.5867 7.63393 27.5594 7.77271 27.6252C7.91209 27.6876 7.99147 27.8187 7.94321 27.9144ZM8.88622 28.7557C8.79481 28.8405 8.61604 28.8011 8.4947 28.6672C8.36931 28.5335 8.34585 28.3549 8.43862 28.2687C8.53289 28.1841 8.70625 28.2236 8.83194 28.3575C8.95734 28.4926 8.98169 28.6702 8.88607 28.7559M9.53319 29.8323C9.41561 29.9139 9.22346 29.8374 9.10483 29.6669C8.98741 29.4965 8.98741 29.292 9.10739 29.2101C9.22647 29.1282 9.41561 29.2018 9.53589 29.371C9.65317 29.5443 9.65317 29.7488 9.53304 29.8324M10.6272 31.0791C10.5221 31.1949 10.2983 31.1639 10.1344 31.0058C9.96695 30.8512 9.92019 30.6318 10.0256 30.5159C10.1319 30.3998 10.357 30.4325 10.5221 30.5893C10.6885 30.7435 10.7392 30.9646 10.6272 31.0791ZM12.0411 31.5001C11.9949 31.6502 11.7793 31.7184 11.5622 31.6547C11.3454 31.589 11.2035 31.4131 11.2472 31.2614C11.2923 31.1103 11.5088 31.0391 11.7276 31.1074C11.9441 31.1728 12.0862 31.3474 12.0411 31.5001ZM13.6504 31.6786C13.6558 31.8368 13.4717 31.9679 13.2437 31.9707C13.0144 31.9757 12.8291 31.8477 12.8267 31.6923C12.8267 31.5326 13.0066 31.4027 13.2358 31.3989C13.4637 31.3944 13.6504 31.5215 13.6504 31.6786ZM15.2312 31.618C15.2586 31.7723 15.1001 31.9307 14.8739 31.9728C14.6513 32.0134 14.4453 31.9182 14.4169 31.7653C14.3893 31.6072 14.5507 31.4488 14.7728 31.4078C14.9995 31.3684 15.2024 31.4612 15.2312 31.618Z"/></svg>