<svg width="38" height="38" viewBox="0 0 38 38" fill="none" xmlns="http://www.w3.org/2000/svg">
<path d="M12.9138 18.6974C12.9138 15.2554 15.7034 12.4644 19.1455 12.4644C22.5876 12.4644 25.3787 15.2554 25.3787 18.6974C25.3787 22.1393 22.5876 24.9303 19.1455 24.9303C15.7034 24.9303 12.9138 22.1393 12.9138 18.6974ZM9.54422 18.6974C9.54422 24 13.8427 28.2983 19.1455 28.2983C24.4483 28.2983 28.7468 24 28.7468 18.6974C28.7468 13.3947 24.4483 9.09647 19.1455 9.09647C13.8427 9.09647 9.54422 13.3947 9.54422 18.6974ZM26.883 8.71587C26.883 9.95431 27.8874 10.9602 29.1274 10.9602C30.3659 10.9602 31.3718 9.95431 31.3718 8.71587C31.3718 7.47744 30.3674 6.4731 29.1274 6.4731C27.8874 6.4731 26.883 7.47744 26.883 8.71587ZM11.5907 33.9165C9.76775 33.8335 8.77696 33.5299 8.11845 33.2732C7.24547 32.9333 6.62321 32.5286 5.96771 31.8746C5.31373 31.2207 4.90745 30.5984 4.56913 29.7255C4.31237 29.067 4.00879 28.0763 3.92572 26.2533C3.8351 24.2824 3.81698 23.6904 3.81698 18.6974C3.81698 13.7044 3.83661 13.1138 3.92572 11.1414C4.00879 9.31848 4.31388 8.32924 4.56913 7.66924C4.90896 6.7963 5.31373 6.17406 5.96771 5.51859C6.6217 4.86464 7.24396 4.45837 8.11845 4.12007C8.77696 3.86332 9.76775 3.55975 11.5907 3.47668C13.5618 3.38607 14.1538 3.36794 19.1455 3.36794C24.1387 3.36794 24.7293 3.38758 26.7018 3.47668C28.5248 3.55975 29.5141 3.86483 30.1741 4.12007C31.0471 4.45837 31.6693 4.86464 32.3248 5.51859C32.9788 6.17255 33.3836 6.7963 33.7234 7.66924C33.9802 8.32773 34.2837 9.31848 34.3668 11.1414C34.4574 13.1138 34.4756 13.7044 34.4756 18.6974C34.4756 23.6889 34.4574 24.2809 34.3668 26.2533C34.2837 28.0763 33.9787 29.067 33.7234 29.7255C33.3836 30.5984 32.9788 31.2207 32.3248 31.8746C31.6708 32.5286 31.0471 32.9333 30.1741 33.2732C29.5156 33.5299 28.5248 33.8335 26.7018 33.9165C24.7308 34.0072 24.1387 34.0253 19.1455 34.0253C14.1538 34.0253 13.5618 34.0072 11.5907 33.9165ZM11.4367 0.113272C9.44605 0.203889 8.08673 0.519539 6.89809 0.981687C5.66867 1.45894 4.62652 2.0993 3.58589 3.13838C2.54677 4.17746 1.90639 5.21956 1.42911 6.45044C0.966948 7.63904 0.651285 8.9983 0.560664 10.9889C0.468533 12.9824 0.447388 13.6198 0.447388 18.6974C0.447388 23.775 0.468533 24.4123 0.560664 26.4059C0.651285 28.3964 0.966948 29.7557 1.42911 30.9443C1.90639 32.1737 2.54526 33.2173 3.58589 34.2564C4.62501 35.2954 5.66715 35.9343 6.89809 36.4131C8.08824 36.8752 9.44605 37.1908 11.4367 37.2815C13.4319 37.3721 14.0677 37.3947 19.1455 37.3947C24.2248 37.3947 24.8607 37.3736 26.8543 37.2815C28.845 37.1908 30.2043 36.8752 31.3929 36.4131C32.6224 35.9343 33.6645 35.2954 34.7051 34.2564C35.7443 33.2173 36.3831 32.1737 36.8619 30.9443C37.3241 29.7557 37.6413 28.3964 37.7304 26.4059C37.821 24.4108 37.8421 23.775 37.8421 18.6974C37.8421 13.6198 37.821 12.9824 37.7304 10.9889C37.6397 8.9983 37.3241 7.63904 36.8619 6.45044C36.3831 5.22107 35.7443 4.17897 34.7051 3.13838C33.666 2.0993 32.6224 1.45894 31.3944 0.981687C30.2043 0.519539 28.845 0.202379 26.8558 0.113272C24.8622 0.0226543 24.2248 0 19.147 0C14.0677 0 13.4319 0.021144 11.4367 0.113272Z" fill="white"/>
</svg>
