<svg width="39" height="38" viewBox="0 0 39 38" fill="none" xmlns="http://www.w3.org/2000/svg">
<path d="M0 4.34383C0 3.08473 0.438313 2.04598 1.3149 1.2276C2.19149 0.409189 3.33109 0 4.73364 0C6.11117 0 7.22568 0.402881 8.07724 1.20872C8.95383 2.03971 9.39215 3.1225 9.39215 4.45715C9.39215 5.66587 8.96638 6.67311 8.11481 7.47895C7.23823 8.30994 6.08611 8.72544 4.6585 8.72544H4.62094C3.24341 8.72544 2.1289 8.30994 1.27733 7.47895C0.425765 6.64795 0 5.6029 0 4.34383ZM0.488392 37.3947V12.1627H8.82862V37.3947H0.488392ZM13.4496 37.3947H21.7898V23.3056C21.7898 22.4242 21.89 21.7443 22.0903 21.2659C22.441 20.4097 22.9732 19.6857 23.687 19.094C24.4008 18.5022 25.2962 18.2063 26.3731 18.2063C29.1783 18.2063 30.5808 20.1075 30.5808 23.91V37.3947H38.9211V22.9279C38.9211 19.201 38.0445 16.3744 36.2912 14.448C34.538 12.5216 32.2213 11.5584 29.3411 11.5584C26.1102 11.5584 23.5931 12.956 21.7898 15.7511V15.8267H21.7522L21.7898 15.7511V12.1627H13.4496C13.4996 12.9685 13.5247 15.4741 13.5247 19.6795C13.5247 23.8848 13.4996 29.7899 13.4496 37.3947Z" fill="#0A66C2"/>
</svg>
