<svg xmlns="http://www.w3.org/2000/svg" width="25" height="25" fill="none" viewBox="0 0 25 25"><path fill="#fff" d="M0 2.79016C0 1.9814 0.28154 1.31419 0.844595 0.788522C1.40765 0.262833 2.13965 0 3.04054 0C3.92536 0 4.64124 0.258781 5.18822 0.776391C5.75128 1.31016 6.03282 2.00566 6.03282 2.86294C6.03282 3.63933 5.75934 4.28631 5.21236 4.80392C4.6493 5.33769 3.90927 5.60458 2.99228 5.60458H2.96815C2.08333 5.60458 1.36745 5.33769 0.820463 4.80392C0.27348 4.27015 0 3.59889 0 2.79016ZM0.313707 24.0196V7.81244H5.67085V24.0196H0.313707ZM8.639 24.0196H13.9961V14.9698C13.9961 14.4037 14.0605 13.9669 14.1892 13.6596C14.4144 13.1097 14.7563 12.6446 15.2148 12.2646C15.6733 11.8844 16.2484 11.6944 16.9402 11.6944C18.742 11.6944 19.6429 12.9156 19.6429 15.358V24.0196H25V14.7272C25 12.3333 24.4369 10.5177 23.3108 9.2803C22.1847 8.04293 20.6966 7.42424 18.8465 7.42424C16.7712 7.42424 15.1544 8.32195 13.9961 10.1174V10.1659H13.972L13.9961 10.1174V7.81244H8.639C8.67116 8.33002 8.68726 9.93941 8.68726 12.6406C8.68726 15.3418 8.67116 19.1348 8.639 24.0196Z"/></svg>