<svg width="47" height="38" viewBox="0 0 47 38" fill="none" xmlns="http://www.w3.org/2000/svg">
<path d="M15.0967 38C32.4543 38 41.9466 23.6146 41.9466 11.1401C41.9466 10.7316 41.9383 10.3249 41.9199 9.91991C43.7669 8.58297 45.3609 6.92763 46.6271 5.03148C44.9362 5.78349 43.1167 6.28963 41.2079 6.51783C43.1562 5.34915 44.6519 3.50026 45.3577 1.2964C43.5052 2.39571 41.4786 3.17066 39.3653 3.58786C37.6433 1.7529 35.1917 0.605255 32.477 0.605255C27.2657 0.605255 23.0397 4.83292 23.0397 10.0442C23.0397 10.785 23.1227 11.5054 23.2846 12.1967C15.4415 11.8019 8.48682 8.04541 3.83239 2.33345C2.99409 3.77412 2.55315 5.41147 2.55462 7.07828C2.55462 10.3535 4.22055 13.2448 6.75404 14.9363C5.25545 14.8905 3.78976 14.4856 2.4802 13.7556C2.4788 13.7952 2.4788 13.8338 2.4788 13.8762C2.4788 18.448 5.73158 22.2651 10.0495 23.1301C9.23858 23.351 8.40174 23.4627 7.56121 23.4622C6.9542 23.4622 6.36262 23.4025 5.78767 23.2921C6.98907 27.043 10.4728 29.7725 14.6031 29.8488C11.3732 32.3812 7.30459 33.8897 2.88257 33.8897C2.13033 33.8903 1.3787 33.8466 0.631592 33.7589C4.80802 36.4368 9.76713 37.9993 15.0972 37.9993" fill="#00ACEE"/>
</svg>
