<svg width="38" height="38" viewBox="0 0 38 38" fill="none" xmlns="http://www.w3.org/2000/svg">
<path d="M26.846 22.434C26.9956 21.2001 27.1077 19.9663 27.1077 18.695C27.1077 17.4237 26.9956 16.1899 26.846 14.956H33.1649C33.464 16.1525 33.651 17.405 33.651 18.695C33.651 19.985 33.464 21.2375 33.1649 22.434M23.537 32.8284C24.6587 30.7533 25.5187 28.5099 26.1169 26.173H31.6319C29.8372 29.2577 26.9769 31.6506 23.537 32.8284ZM23.0696 22.434H14.3204C14.1334 21.2001 14.0212 19.9663 14.0212 18.695C14.0212 17.4237 14.1334 16.1712 14.3204 14.956H23.0696C23.2379 16.1712 23.3687 17.4237 23.3687 18.695C23.3687 19.9663 23.2379 21.2001 23.0696 22.434ZM18.695 33.5762C17.1433 31.3328 15.8907 28.8464 15.1243 26.173H22.2657C21.4992 28.8464 20.2467 31.3328 18.695 33.5762ZM11.217 11.217H5.75806C7.53408 8.11363 10.4131 5.72067 13.8343 4.56158C12.7126 6.63672 11.8713 8.88012 11.217 11.217ZM5.75806 26.173H11.217C11.8713 28.5099 12.7126 30.7533 13.8343 32.8284C10.4131 31.6506 7.53408 29.2577 5.75806 26.173ZM4.22507 22.434C3.92595 21.2375 3.739 19.985 3.739 18.695C3.739 17.405 3.92595 16.1525 4.22507 14.956H10.544C10.3944 16.1899 10.2822 17.4237 10.2822 18.695C10.2822 19.9663 10.3944 21.2001 10.544 22.434M18.695 3.79509C20.2467 6.03849 21.4992 8.54361 22.2657 11.217H15.1243C15.8907 8.54361 17.1433 6.03849 18.695 3.79509ZM31.6319 11.217H26.1169C25.5187 8.88012 24.6587 6.63672 23.537 4.56158C26.9769 5.73936 29.8372 8.11363 31.6319 11.217ZM18.695 0C8.35666 0 0 8.41275 0 18.695C0 23.6532 1.96965 28.4084 5.47564 31.9144C7.21163 33.6504 9.27255 35.0274 11.5407 35.9669C13.8089 36.9064 16.2399 37.39 18.695 37.39C23.6532 37.39 28.4084 35.4204 31.9144 31.9144C35.4204 28.4084 37.39 23.6532 37.39 18.695C37.39 16.2399 36.9064 13.8089 35.9669 11.5407C35.0274 9.27255 33.6504 7.21163 31.9144 5.47564C30.1784 3.73965 28.1174 2.36258 25.8493 1.42307C23.5811 0.483561 21.1501 0 18.695 0Z" fill="white"/>
</svg>
